<svg width="47" height="33" viewBox="0 0 47 33" fill="#ffffff" xmlns="http://www.w3.org/2000/svg">
<g opacity="0.3">
<path d="M27.9821 28.0425C29.7079 30.5731 32.4348 31.8384 36.1627 31.8384C39.0622 31.8384 41.4094 31.0519 43.2043 29.4788C44.9992 27.8373 45.8966 25.6828 45.8966 23.0154C45.8966 20.2111 45.0682 18.0567 43.4114 16.552C41.7545 14.9789 39.5454 14.1923 36.784 14.1923C33.5394 14.1923 31.0196 15.2525 29.2247 17.3727C29.0866 16.894 29.0176 16.1416 29.0176 15.1157C29.0176 13.8161 29.1902 12.6876 29.5353 11.7301C30.0876 10.0202 31.0541 8.41287 32.4348 6.90816C33.8845 5.33506 35.5069 4.13814 37.3018 3.31739L36.3698 1.4707C32.78 3.1122 30.0531 5.43766 28.1892 8.44707C26.3252 11.4565 25.3932 14.7395 25.3932 18.2961C25.3932 20.3479 25.6349 22.2288 26.1181 23.9387C26.6014 25.6486 27.2227 27.0165 27.9821 28.0425Z" stroke="#007A51" strokeWidth="2"/>
<path d="M4.16498 28.0425C5.89086 30.5731 8.61774 31.8384 12.3456 31.8384C15.2451 31.8384 17.5923 31.0519 19.3872 29.4788C21.1821 27.8373 22.0796 25.6828 22.0796 23.0154C22.0796 20.2111 21.2511 18.0567 19.5943 16.552C17.9375 14.9789 15.7283 14.1923 12.9669 14.1923C9.7223 14.1923 7.20252 15.2525 5.40761 17.3727C5.26954 16.894 5.20051 16.1416 5.20051 15.1157C5.20051 13.8161 5.3731 12.6876 5.71827 11.7301C6.27055 10.0202 7.23704 8.41287 8.61774 6.90816C10.0675 5.33506 11.6898 4.13814 13.4847 3.31739L12.5527 1.4707C8.96292 3.1122 6.23603 5.43766 4.37209 8.44707C2.50814 11.4565 1.57617 14.7395 1.57617 18.2961C1.57617 20.3479 1.81779 22.2288 2.30104 23.9387C2.78428 25.6486 3.4056 27.0165 4.16498 28.0425Z" stroke="#007A51" strokeWidth="2"/>
</g>
</svg>
